<svg version="1" xmlns="http://www.w3.org/2000/svg" width="693.333" height="693.333" viewBox="0 0 520.000000 520.000000"><path d="M130 310.2c-.1 115.3-.1 115.5-5.6 127.8-4.8 10.7-13 16.1-26.9 17.6-16.4 1.7-31.8-6.2-43-22l-2.1-2.9L30 446c-12.4 8.5-24.2 16.6-26.2 18.1l-3.7 2.6 4.6 8.1c10 17.8 23.7 31.5 40.1 40.4l8.7 4.8h95l6.4-3c10.2-4.9 19-11.2 27.2-19.7 14.8-15.3 22.7-30.2 28.7-54.3l2.6-10.5.3-114.3.4-114.2H130v106.2zM255 361.9V520h84V415l16.1.2 16.1.3 26.7 52 26.7 52 46.7.3c25.7.1 46.7 0 46.7-.3 0-.4-15.1-27.7-33.7-60.7-18.5-33.1-33.1-60.4-32.5-60.6 3.4-1.1 14.6-9.3 20.5-15.1 12.9-12.3 21.5-27.2 26.4-45.6 2.4-9.1 2.6-11.7 2.7-29.5.1-21.8-1.2-30.3-6.5-43.9-4.3-10.7-9.2-18.3-17.1-26.7-15.5-16.3-36.1-25.7-67.9-31-9-1.5-19.9-1.8-82.6-2.1l-72.3-.4v158zm136.2-89.4c13.5 2.8 21.7 8.5 25.9 17.8 2.1 4.5 2.4 6.7 2.4 16.7 0 9.7-.4 12.4-2.4 17.5-2.9 7.1-10.3 15-17.4 18.4-9.6 4.6-14.1 5.3-37.9 5.8l-22.8.5V271h22.8c15.8 0 24.7.5 29.4 1.5z"/></svg>