<?xml version="1.0" encoding="UTF-8" standalone="no"?>
<svg
   xmlns:dc="http://purl.org/dc/elements/1.1/"
   xmlns:cc="http://creativecommons.org/ns#"
   xmlns:rdf="http://www.w3.org/1999/02/22-rdf-syntax-ns#"
   xmlns:svg="http://www.w3.org/2000/svg"
   xmlns="http://www.w3.org/2000/svg"
   xmlns:sodipodi="http://sodipodi.sourceforge.net/DTD/sodipodi-0.dtd"
   xmlns:inkscape="http://www.inkscape.org/namespaces/inkscape"
   version="1.1"
   id="Layer_1"
   x="0px"
   y="0px"
   viewBox="0 0 735 852"
   style="enable-background:new 0 0 735 852;"
   xml:space="preserve"
   sodipodi:docname="hex.svg"
   inkscape:version="1.0.1 (3bc2e813f5, 2020-09-07)"><metadata
   id="metadata58"><rdf:RDF><cc:Work
       rdf:about=""><dc:format>image/svg+xml</dc:format><dc:type
         rdf:resource="http://purl.org/dc/dcmitype/StillImage" /><dc:title>shiny</dc:title></cc:Work></rdf:RDF></metadata><defs
   id="defs56"><marker
     style="overflow:visible;"
     id="marker2487"
     refX="0.0"
     refY="0.0"
     orient="auto"
     inkscape:stockid="Arrow1Send"
     inkscape:isstock="true"><path
       transform="scale(0.2) rotate(180) translate(6,0)"
       style="fill-rule:evenodd;stroke:#79740e;stroke-width:1pt;stroke-opacity:1;fill:#79740e;fill-opacity:1"
       d="M 0.0,0.0 L 5.0,-5.0 L -12.5,0.0 L 5.0,5.0 L 0.0,0.0 z "
       id="path2485" /></marker><marker
     style="overflow:visible;"
     id="marker2477"
     refX="0.0"
     refY="0.0"
     orient="auto"
     inkscape:stockid="Arrow1Send"
     inkscape:isstock="true"><path
       transform="scale(0.2) rotate(180) translate(6,0)"
       style="fill-rule:evenodd;stroke:#79740e;stroke-width:1pt;stroke-opacity:1;fill:#79740e;fill-opacity:1"
       d="M 0.0,0.0 L 5.0,-5.0 L -12.5,0.0 L 5.0,5.0 L 0.0,0.0 z "
       id="path2475" /></marker><marker
     style="overflow:visible;"
     id="marker2467"
     refX="0.0"
     refY="0.0"
     orient="auto"
     inkscape:stockid="Arrow1Send"
     inkscape:isstock="true"><path
       transform="scale(0.2) rotate(180) translate(6,0)"
       style="fill-rule:evenodd;stroke:#79740e;stroke-width:1pt;stroke-opacity:1;fill:#79740e;fill-opacity:1"
       d="M 0.0,0.0 L 5.0,-5.0 L -12.5,0.0 L 5.0,5.0 L 0.0,0.0 z "
       id="path2465" /></marker><marker
     style="overflow:visible;"
     id="marker2457"
     refX="0.0"
     refY="0.0"
     orient="auto"
     inkscape:stockid="Arrow1Send"
     inkscape:isstock="true"><path
       transform="scale(0.2) rotate(180) translate(6,0)"
       style="fill-rule:evenodd;stroke:#79740e;stroke-width:1pt;stroke-opacity:1;fill:#79740e;fill-opacity:1"
       d="M 0.0,0.0 L 5.0,-5.0 L -12.5,0.0 L 5.0,5.0 L 0.0,0.0 z "
       id="path2455" /></marker><marker
     style="overflow:visible;"
     id="marker2447"
     refX="0.0"
     refY="0.0"
     orient="auto"
     inkscape:stockid="Arrow1Send"
     inkscape:isstock="true"><path
       transform="scale(0.2) rotate(180) translate(6,0)"
       style="fill-rule:evenodd;stroke:#79740e;stroke-width:1pt;stroke-opacity:1;fill:#79740e;fill-opacity:1"
       d="M 0.0,0.0 L 5.0,-5.0 L -12.5,0.0 L 5.0,5.0 L 0.0,0.0 z "
       id="path2445" /></marker><marker
     style="overflow:visible"
     id="marker2249"
     refX="0.0"
     refY="0.0"
     orient="auto"
     inkscape:stockid="TriangleOutS"
     inkscape:isstock="true"><path
       transform="scale(0.2)"
       style="fill-rule:evenodd;stroke:#79740e;stroke-width:1pt;stroke-opacity:1;fill:#79740e;fill-opacity:1"
       d="M 5.77,0.0 L -2.88,5.0 L -2.88,-5.0 L 5.77,0.0 z "
       id="path2247" /></marker><marker
     style="overflow:visible"
     id="marker2239"
     refX="0.0"
     refY="0.0"
     orient="auto"
     inkscape:stockid="TriangleOutS"
     inkscape:isstock="true"><path
       transform="scale(0.2)"
       style="fill-rule:evenodd;stroke:#79740e;stroke-width:1pt;stroke-opacity:1;fill:#79740e;fill-opacity:1"
       d="M 5.77,0.0 L -2.88,5.0 L -2.88,-5.0 L 5.77,0.0 z "
       id="path2237" /></marker><marker
     style="overflow:visible"
     id="marker2229"
     refX="0.0"
     refY="0.0"
     orient="auto"
     inkscape:stockid="TriangleOutS"
     inkscape:isstock="true"><path
       transform="scale(0.2)"
       style="fill-rule:evenodd;stroke:#79740e;stroke-width:1pt;stroke-opacity:1;fill:#79740e;fill-opacity:1"
       d="M 5.77,0.0 L -2.88,5.0 L -2.88,-5.0 L 5.77,0.0 z "
       id="path2227" /></marker><marker
     style="overflow:visible"
     id="marker2219"
     refX="0.0"
     refY="0.0"
     orient="auto"
     inkscape:stockid="TriangleOutS"
     inkscape:isstock="true"><path
       transform="scale(0.2)"
       style="fill-rule:evenodd;stroke:#79740e;stroke-width:1pt;stroke-opacity:1;fill:#79740e;fill-opacity:1"
       d="M 5.77,0.0 L -2.88,5.0 L -2.88,-5.0 L 5.77,0.0 z "
       id="path2217" /></marker><marker
     style="overflow:visible"
     id="marker2209"
     refX="0.0"
     refY="0.0"
     orient="auto"
     inkscape:stockid="TriangleOutS"
     inkscape:isstock="true"><path
       transform="scale(0.2)"
       style="fill-rule:evenodd;stroke:#79740e;stroke-width:1pt;stroke-opacity:1;fill:#79740e;fill-opacity:1"
       d="M 5.77,0.0 L -2.88,5.0 L -2.88,-5.0 L 5.77,0.0 z "
       id="path2207" /></marker><marker
     style="overflow:visible;"
     id="marker2041"
     refX="0.0"
     refY="0.0"
     orient="auto"
     inkscape:stockid="Arrow2Mend"
     inkscape:isstock="true"><path
       transform="scale(0.6) rotate(180) translate(0,0)"
       d="M 8.7185878,4.0337352 L -2.2072895,0.016013256 L 8.7185884,-4.0017078 C 6.9730900,-1.6296469 6.9831476,1.6157441 8.7185878,4.0337352 z "
       style="fill-rule:evenodd;stroke-width:0.625;stroke-linejoin:round;stroke:#79740e;stroke-opacity:1;fill:#79740e;fill-opacity:1"
       id="path2039" /></marker><marker
     style="overflow:visible;"
     id="marker2031"
     refX="0.0"
     refY="0.0"
     orient="auto"
     inkscape:stockid="Arrow2Mend"
     inkscape:isstock="true"><path
       transform="scale(0.6) rotate(180) translate(0,0)"
       d="M 8.7185878,4.0337352 L -2.2072895,0.016013256 L 8.7185884,-4.0017078 C 6.9730900,-1.6296469 6.9831476,1.6157441 8.7185878,4.0337352 z "
       style="fill-rule:evenodd;stroke-width:0.625;stroke-linejoin:round;stroke:#79740e;stroke-opacity:1;fill:#79740e;fill-opacity:1"
       id="path2029" /></marker><marker
     style="overflow:visible;"
     id="marker2021"
     refX="0.0"
     refY="0.0"
     orient="auto"
     inkscape:stockid="Arrow2Mend"
     inkscape:isstock="true"><path
       transform="scale(0.6) rotate(180) translate(0,0)"
       d="M 8.7185878,4.0337352 L -2.2072895,0.016013256 L 8.7185884,-4.0017078 C 6.9730900,-1.6296469 6.9831476,1.6157441 8.7185878,4.0337352 z "
       style="fill-rule:evenodd;stroke-width:0.625;stroke-linejoin:round;stroke:#79740e;stroke-opacity:1;fill:#79740e;fill-opacity:1"
       id="path2019" /></marker><marker
     style="overflow:visible;"
     id="marker2011"
     refX="0.0"
     refY="0.0"
     orient="auto"
     inkscape:stockid="Arrow2Mend"
     inkscape:isstock="true"><path
       transform="scale(0.6) rotate(180) translate(0,0)"
       d="M 8.7185878,4.0337352 L -2.2072895,0.016013256 L 8.7185884,-4.0017078 C 6.9730900,-1.6296469 6.9831476,1.6157441 8.7185878,4.0337352 z "
       style="fill-rule:evenodd;stroke-width:0.625;stroke-linejoin:round;stroke:#79740e;stroke-opacity:1;fill:#79740e;fill-opacity:1"
       id="path2009" /></marker><marker
     style="overflow:visible;"
     id="marker2001"
     refX="0.0"
     refY="0.0"
     orient="auto"
     inkscape:stockid="Arrow2Mend"
     inkscape:isstock="true"><path
       transform="scale(0.6) rotate(180) translate(0,0)"
       d="M 8.7185878,4.0337352 L -2.2072895,0.016013256 L 8.7185884,-4.0017078 C 6.9730900,-1.6296469 6.9831476,1.6157441 8.7185878,4.0337352 z "
       style="fill-rule:evenodd;stroke-width:0.625;stroke-linejoin:round;stroke:#79740e;stroke-opacity:1;fill:#79740e;fill-opacity:1"
       id="path1999" /></marker><marker
     style="overflow:visible;"
     id="marker1863"
     refX="0.0"
     refY="0.0"
     orient="auto"
     inkscape:stockid="Arrow1Send"
     inkscape:isstock="true"><path
       transform="scale(0.2) rotate(180) translate(6,0)"
       style="fill-rule:evenodd;stroke:#79740e;stroke-width:1pt;stroke-opacity:1;fill:#79740e;fill-opacity:1"
       d="M 0.0,0.0 L 5.0,-5.0 L -12.5,0.0 L 5.0,5.0 L 0.0,0.0 z "
       id="path1861" /></marker><marker
     style="overflow:visible;"
     id="marker1853"
     refX="0.0"
     refY="0.0"
     orient="auto"
     inkscape:stockid="Arrow1Send"
     inkscape:isstock="true"><path
       transform="scale(0.2) rotate(180) translate(6,0)"
       style="fill-rule:evenodd;stroke:#79740e;stroke-width:1pt;stroke-opacity:1;fill:#79740e;fill-opacity:1"
       d="M 0.0,0.0 L 5.0,-5.0 L -12.5,0.0 L 5.0,5.0 L 0.0,0.0 z "
       id="path1851" /></marker><marker
     style="overflow:visible;"
     id="marker1843"
     refX="0.0"
     refY="0.0"
     orient="auto"
     inkscape:stockid="Arrow1Send"
     inkscape:isstock="true"><path
       transform="scale(0.2) rotate(180) translate(6,0)"
       style="fill-rule:evenodd;stroke:#79740e;stroke-width:1pt;stroke-opacity:1;fill:#79740e;fill-opacity:1"
       d="M 0.0,0.0 L 5.0,-5.0 L -12.5,0.0 L 5.0,5.0 L 0.0,0.0 z "
       id="path1841" /></marker><marker
     style="overflow:visible;"
     id="marker1833"
     refX="0.0"
     refY="0.0"
     orient="auto"
     inkscape:stockid="Arrow1Send"
     inkscape:isstock="true"><path
       transform="scale(0.2) rotate(180) translate(6,0)"
       style="fill-rule:evenodd;stroke:#79740e;stroke-width:1pt;stroke-opacity:1;fill:#79740e;fill-opacity:1"
       d="M 0.0,0.0 L 5.0,-5.0 L -12.5,0.0 L 5.0,5.0 L 0.0,0.0 z "
       id="path1831" /></marker><marker
     style="overflow:visible;"
     id="marker1823"
     refX="0.0"
     refY="0.0"
     orient="auto"
     inkscape:stockid="Arrow1Send"
     inkscape:isstock="true"><path
       transform="scale(0.2) rotate(180) translate(6,0)"
       style="fill-rule:evenodd;stroke:#79740e;stroke-width:1pt;stroke-opacity:1;fill:#79740e;fill-opacity:1"
       d="M 0.0,0.0 L 5.0,-5.0 L -12.5,0.0 L 5.0,5.0 L 0.0,0.0 z "
       id="path1821" /></marker><marker
     style="overflow:visible;"
     id="marker1715"
     refX="0.0"
     refY="0.0"
     orient="auto"
     inkscape:stockid="Arrow1Mend"
     inkscape:isstock="true"><path
       transform="scale(0.4) rotate(180) translate(10,0)"
       style="fill-rule:evenodd;stroke:#79740e;stroke-width:1pt;stroke-opacity:1;fill:#79740e;fill-opacity:1"
       d="M 0.0,0.0 L 5.0,-5.0 L -12.5,0.0 L 5.0,5.0 L 0.0,0.0 z "
       id="path1713" /></marker><marker
     style="overflow:visible;"
     id="marker1705"
     refX="0.0"
     refY="0.0"
     orient="auto"
     inkscape:stockid="Arrow1Mend"
     inkscape:isstock="true"><path
       transform="scale(0.4) rotate(180) translate(10,0)"
       style="fill-rule:evenodd;stroke:#79740e;stroke-width:1pt;stroke-opacity:1;fill:#79740e;fill-opacity:1"
       d="M 0.0,0.0 L 5.0,-5.0 L -12.5,0.0 L 5.0,5.0 L 0.0,0.0 z "
       id="path1703" /></marker><marker
     style="overflow:visible;"
     id="marker1695"
     refX="0.0"
     refY="0.0"
     orient="auto"
     inkscape:stockid="Arrow1Mend"
     inkscape:isstock="true"><path
       transform="scale(0.4) rotate(180) translate(10,0)"
       style="fill-rule:evenodd;stroke:#79740e;stroke-width:1pt;stroke-opacity:1;fill:#79740e;fill-opacity:1"
       d="M 0.0,0.0 L 5.0,-5.0 L -12.5,0.0 L 5.0,5.0 L 0.0,0.0 z "
       id="path1693" /></marker><marker
     style="overflow:visible;"
     id="marker1685"
     refX="0.0"
     refY="0.0"
     orient="auto"
     inkscape:stockid="Arrow1Mend"
     inkscape:isstock="true"><path
       transform="scale(0.4) rotate(180) translate(10,0)"
       style="fill-rule:evenodd;stroke:#79740e;stroke-width:1pt;stroke-opacity:1;fill:#79740e;fill-opacity:1"
       d="M 0.0,0.0 L 5.0,-5.0 L -12.5,0.0 L 5.0,5.0 L 0.0,0.0 z "
       id="path1683" /></marker><marker
     style="overflow:visible;"
     id="marker1675"
     refX="0.0"
     refY="0.0"
     orient="auto"
     inkscape:stockid="Arrow1Mend"
     inkscape:isstock="true"><path
       transform="scale(0.4) rotate(180) translate(10,0)"
       style="fill-rule:evenodd;stroke:#79740e;stroke-width:1pt;stroke-opacity:1;fill:#79740e;fill-opacity:1"
       d="M 0.0,0.0 L 5.0,-5.0 L -12.5,0.0 L 5.0,5.0 L 0.0,0.0 z "
       id="path1673" /></marker><marker
     style="overflow:visible;"
     id="marker1597"
     refX="0.0"
     refY="0.0"
     orient="auto"
     inkscape:stockid="Arrow1Lend"
     inkscape:isstock="true"><path
       transform="scale(0.8) rotate(180) translate(12.5,0)"
       style="fill-rule:evenodd;stroke:#79740e;stroke-width:1pt;stroke-opacity:1;fill:#79740e;fill-opacity:1"
       d="M 0.0,0.0 L 5.0,-5.0 L -12.5,0.0 L 5.0,5.0 L 0.0,0.0 z "
       id="path1595" /></marker><marker
     style="overflow:visible;"
     id="marker1587"
     refX="0.0"
     refY="0.0"
     orient="auto"
     inkscape:stockid="Arrow1Lend"
     inkscape:isstock="true"><path
       transform="scale(0.8) rotate(180) translate(12.5,0)"
       style="fill-rule:evenodd;stroke:#79740e;stroke-width:1pt;stroke-opacity:1;fill:#79740e;fill-opacity:1"
       d="M 0.0,0.0 L 5.0,-5.0 L -12.5,0.0 L 5.0,5.0 L 0.0,0.0 z "
       id="path1585" /></marker><marker
     style="overflow:visible;"
     id="marker1577"
     refX="0.0"
     refY="0.0"
     orient="auto"
     inkscape:stockid="Arrow1Lend"
     inkscape:isstock="true"><path
       transform="scale(0.8) rotate(180) translate(12.5,0)"
       style="fill-rule:evenodd;stroke:#79740e;stroke-width:1pt;stroke-opacity:1;fill:#79740e;fill-opacity:1"
       d="M 0.0,0.0 L 5.0,-5.0 L -12.5,0.0 L 5.0,5.0 L 0.0,0.0 z "
       id="path1575" /></marker><marker
     style="overflow:visible;"
     id="marker1567"
     refX="0.0"
     refY="0.0"
     orient="auto"
     inkscape:stockid="Arrow1Lend"
     inkscape:isstock="true"><path
       transform="scale(0.8) rotate(180) translate(12.5,0)"
       style="fill-rule:evenodd;stroke:#79740e;stroke-width:1pt;stroke-opacity:1;fill:#79740e;fill-opacity:1"
       d="M 0.0,0.0 L 5.0,-5.0 L -12.5,0.0 L 5.0,5.0 L 0.0,0.0 z "
       id="path1565" /></marker><marker
     style="overflow:visible;"
     id="marker1557"
     refX="0.0"
     refY="0.0"
     orient="auto"
     inkscape:stockid="Arrow1Lend"
     inkscape:isstock="true"><path
       transform="scale(0.8) rotate(180) translate(12.5,0)"
       style="fill-rule:evenodd;stroke:#79740e;stroke-width:1pt;stroke-opacity:1;fill:#79740e;fill-opacity:1"
       d="M 0.0,0.0 L 5.0,-5.0 L -12.5,0.0 L 5.0,5.0 L 0.0,0.0 z "
       id="path1555" /></marker><filter
     style="color-interpolation-filters:sRGB;"
     inkscape:label="Drop Shadow"
     id="filter3205"><feFlood
       flood-opacity="1"
       flood-color="rgb(29,32,33)"
       result="flood"
       id="feFlood3195" /><feComposite
       in="flood"
       in2="SourceGraphic"
       operator="in"
       result="composite1"
       id="feComposite3197" /><feGaussianBlur
       in="composite1"
       stdDeviation="0"
       result="blur"
       id="feGaussianBlur3199" /><feOffset
       dx="-5"
       dy="5"
       result="offset"
       id="feOffset3201" /><feComposite
       in="SourceGraphic"
       in2="offset"
       operator="over"
       result="fbSourceGraphic"
       id="feComposite3203" /><feColorMatrix
       result="fbSourceGraphicAlpha"
       in="fbSourceGraphic"
       values="0 0 0 -1 0 0 0 0 -1 0 0 0 0 -1 0 0 0 0 1 0"
       id="feColorMatrix3207" /><feFlood
       id="feFlood3209"
       flood-opacity="1"
       flood-color="rgb(235,219,178)"
       result="flood"
       in="fbSourceGraphic" /><feComposite
       in2="fbSourceGraphic"
       id="feComposite3211"
       in="flood"
       operator="in"
       result="composite1" /><feGaussianBlur
       id="feGaussianBlur3213"
       in="composite1"
       stdDeviation="0"
       result="blur" /><feOffset
       id="feOffset3215"
       dx="-5"
       dy="5"
       result="offset" /><feComposite
       in2="offset"
       id="feComposite3217"
       in="fbSourceGraphic"
       operator="over"
       result="composite2" /></filter><mask
     maskUnits="userSpaceOnUse"
     id="mask1381"><path
       class="st0"
       d="M 715.1,226.8 366.9,16 19.9,226.8 V 628.3 L 367.5,829 715.1,628.3 Z"
       id="path1383"
       style="fill:#ffffff;fill-opacity:1" /></mask></defs><sodipodi:namedview
   pagecolor="#ffffff"
   bordercolor="#666666"
   borderopacity="1"
   objecttolerance="10"
   gridtolerance="10"
   guidetolerance="10"
   inkscape:pageopacity="0"
   inkscape:pageshadow="2"
   inkscape:window-width="1680"
   inkscape:window-height="1029"
   id="namedview54"
   showgrid="false"
   inkscape:object-paths="true"
   inkscape:zoom="0.35355339"
   inkscape:cx="133.87011"
   inkscape:cy="431.51116"
   inkscape:window-x="0"
   inkscape:window-y="0"
   inkscape:window-maximized="1"
   inkscape:current-layer="Layer_1"
   inkscape:document-rotation="0"
   inkscape:snap-global="true"
   showguides="true"
   inkscape:guide-bbox="true"
   inkscape:snap-object-midpoints="true" />
<style
   type="text/css"
   id="style2">
	.st0{fill:#428BCA;}
	.st1{opacity:0.25;fill:url(#SVGID_1_);enable-background:new    ;}
	.st2{fill:#3674A8;}
	.st3{fill:#E6B35A;}
	.st4{fill:#FFFFFF;}
	.st5{opacity:0.9;fill:#FFFFFF;enable-background:new    ;}
</style>
<title
   id="title4">shiny</title>
<path
   class="st0"
   d="M715.1,226.8L366.9,16l-347,210.8v401.5L367.5,829l347.6-200.7V226.8z"
   id="path6"
   style="fill:#ffffff;fill-opacity:1" />
<linearGradient
   id="SVGID_1_"
   gradientUnits="userSpaceOnUse"
   x1="366.1405"
   y1="-182.39"
   x2="367.4405"
   y2="281.13"
   gradientTransform="matrix(1 0 0 1 0 60)">
	<stop
   offset="0"
   style="stop-color:#FFFFFF;stop-opacity:0.83"
   id="stop8" />
	<stop
   offset="0.56"
   style="stop-color:#FFFFFF;stop-opacity:0.37"
   id="stop10" />
	<stop
   offset="1"
   style="stop-color:#FFFFFF;stop-opacity:0"
   id="stop12" />
</linearGradient>


<path
   class="st3"
   d="M367,633.9c0.3-0.3,0.6-0.6,0.9-0.9h-0.3C367.5,633.3,367.3,633.6,367,633.9z"
   id="path19" />
















<path
   class="st2"
   d="M734.9,637.4V213.1l-29.3-16.9L427.8,35.8L367.5,1l-60.3,34.8L29.4,196.2L0.1,213.1v424.2l29.3,16.9  l281.3,162.4l56.9,32.8l56.9-32.8l281.3-162.4L734.9,637.4z M29.4,621.5V231l50-28.9L367.5,35.8l0,0l287.2,165.8l50.9,29.4v390.5  L367.5,816.7L29.4,621.5z"
   id="path17"
   style="fill:#282828;fill-opacity:1" /></svg>
